<mxfile host="app.diagrams.net" modified="2023-11-12T13:54:19.978Z" agent="Mozilla/5.0 (Windows NT 10.0; Win64; x64; rv:109.0) Gecko/20100101 Firefox/119.0" etag="h02Bo95rCN-U6CtiL528" version="22.1.0" type="device">
  <diagram name="Seite-1" id="PfHLy2_QdlQ3edlnB12N">
    <mxGraphModel dx="167" dy="103" grid="1" gridSize="10" guides="1" tooltips="1" connect="1" arrows="1" fold="1" page="1" pageScale="1" pageWidth="827" pageHeight="1169" math="0" shadow="0">
      <root>
        <mxCell id="0" />
        <mxCell id="1" parent="0" />
        <mxCell id="uHRbQphC8PuHCr16mMQE-1" value="" style="whiteSpace=wrap;html=1;shape=mxgraph.basic.oval_callout;strokeColor=#006666;" vertex="1" parent="1">
          <mxGeometry x="40" y="40" width="30" height="20" as="geometry" />
        </mxCell>
      </root>
    </mxGraphModel>
  </diagram>
</mxfile>
